Coordinates
version=1
nRows=8
nColumns=33
inDegrees=yes

Units are S.I. units (second, meters, Newtons, ...)
Angles are in degrees.

endheader
time	ground_thorax_rot_x	ground_thorax_rot_y	ground_thorax_rot_z	ground_thorax_tx	ground_thorax_ty	ground_thorax_tz	clav_prot_r	clav_elev_r	scapula_abduction_r	scapula_elevation_r	scapula_upward_rot_r	scapula_winging_r	shoulder_elv_r	plane_of_elev_r	axial_rot_r	elbow_flexion_r	pro_sup_r	wrist_flex_r	wrist_dev_r	clav_prot_l	clav_elev_l	scapula_abduction_l	scapula_elevation_l	scapula_upward_rot_l	scapula_winging_l	shoulder_elv_l	plane_of_elev_l	axial_rot_l	elbow_flexion_l	pro_sup_l	wrist_flex_l	wrist_dev_l
      3.36000000	    -32.07213592	    -27.45695159	     34.66992753	    -50.36983003	    778.41024123	     13.50698824	      9.43483963	    -45.00000000	     39.82807090	    -45.00000000	    -45.00000000	  -2253.58869446	  -2092.27925984	     31.26796708	     50.81195740	   1449.87463276	     28.50091429	     17.46680182	     12.79548608	     15.77045944	     38.17409090	    -35.59803982	    -45.00000000	    -45.00000000	     74.20140856	  -4235.37868968	     17.79313054	   -179.99999979	     -2.94955805	   -178.02967669	      6.09052732	    -15.48212444
      3.37000000	    -32.49363898	    -27.24469767	     34.16850130	    -51.70992436	    779.63131542	     13.81363874	      9.56344383	    -45.00000000	     39.78021186	    -45.00000000	    -45.00000000	  -2253.62886853	  -2092.04435243	     31.47769314	     50.25156845	   1450.04800856	     28.28490519	     17.40266544	     12.32981227	     15.87971125	     38.16489880	    -35.93024493	    -45.00000000	    -45.00000000	     74.49371769	  -4234.97740465	     17.98136732	   -179.99999979	     -3.23384185	   -178.40752105	      6.03081300	    -15.49666668
      3.38000000	    -32.77262435	    -27.06740135	     33.69059709	    -53.28457210	    780.92957434	     14.06672885	      9.53781810	    -45.00000000	     39.92291565	    -45.00000000	    -45.00000000	  -2253.75385893	  -2091.63993190	     31.77622465	     49.63017780	   1450.27211159	     28.15695689	     17.57881135	     12.19356824	     15.92485880	     38.24610064	    -36.10700711	    -45.00000000	    -45.00000000	     74.71825473	  -4234.64636732	     18.09643071	   -179.99999979	     -3.57108744	   -179.24662140	      5.96484989	    -15.63365347
      3.39000000	    -33.02529424	    -26.93375234	     33.30228247	    -55.09370985	    782.31226637	     14.27075586	      9.53168534	    -45.00000000	     40.03609988	    -45.00000000	    -45.00000000	  -2253.87702934	  -2091.19533577	     31.96275793	     48.91431262	   1450.56124030	     28.08739047	     17.74952530	     11.97280895	     15.98926274	     38.35438895	    -36.32884644	    -45.00000000	    -45.00000000	     74.95871910	  -4234.36531303	     18.13414214	   -179.99999979	     -3.80807832	   -180.50319016	      5.95436661	    -15.68592773
      3.40000000	    -33.36959708	    -26.69460607	     32.78062838	    -57.13311398	    783.78893184	     14.43118277	      9.53930442	    -45.00000000	     40.12169074	    -45.00000000	    -45.00000000	  -2254.00563818	  -2090.79007758	     32.22854991	     48.16133146	   1450.75258236	     28.07264192	     17.92921354	     11.72868145	     16.03383559	     38.39679422	    -36.62703881	    -45.00000000	    -45.00000000	     75.25716529	  -4234.04185504	     18.21460839	   -179.99999979	     -4.07171314	   -182.07348718	      5.95653784	    -15.73256402
      3.41000000	    -33.69564441	    -26.41479722	     32.17938129	    -59.39843889	    785.36662142	     14.55361763	      9.55997918	    -45.00000000	     40.37057851	    -45.00000000	    -45.00000000	  -2254.13269142	  -2090.29610394	     32.42332771	     47.44941863	   1451.11116865	     28.12514172	     18.15400619	     11.54239216	     16.15093373	     38.52868950	    -36.84157040	    -45.00000000	    -45.00000000	     75.43699930	  -4233.65131325	     18.20083943	   -179.99999979	     -4.36941534	   -184.18303324	      5.95900512	    -15.74520513
      3.42000000	    -34.11794026	    -25.97045312	     31.37135336	    -61.88494526	    787.04928684	     14.64325345	      9.54371871	    -45.00000000	     40.63750741	    -45.00000000	    -44.34391051	  -2254.35868290	  -2089.92780853	     32.55920853	     46.82625723	   1451.33350508	     28.18741794	     18.39148612	     11.32256838	     16.18684104	     38.52995054	    -37.21367600	    -45.00000000	    -45.00000000	     75.75813250	  -4233.31885821	     18.34103645	   -179.99999979	     -4.66056043	   -186.32532406	      6.00981535	    -15.76294538
      3.43000000	    -34.58679339	    -25.38344321	     30.35044126	    -64.59190281	    788.83881848	     14.70390979	      9.52130366	    -45.00000000	     40.96642116	    -45.00000000	    -43.26337513	  -2254.60804940	  -2089.61000769	     32.60736894	     46.44238746	   1451.55172324	     28.27087432	     18.63054009	     11.10080565	     16.27557466	     38.58781773	    -37.59773628	    -45.00000000	    -45.00000000	     76.00886343	  -4232.91762275	     18.44095286	   -179.99999979	     -4.97277156	   -188.68832393	      6.00470932	    -15.79055700
